<svg xmlns="http://www.w3.org/2000/svg" viewBox="0 0 120 160">
  <path fill="#ffc51b" d="M65 3C30 35 32 48 60 73c30 27 14 50-19 60 65-1 85-48 45-81C69 38 57 26 65 3Z"/>
  <path fill="#ff6714" d="M62 28C38 56 54 69 74 87c17 18 7 35-33 46 51 0 75-30 52-60C78 54 60 50 62 28Z"/>
  <path fill="#ef3d65" d="M59 48C36 76 72 90 70 106c-1 12-20 18-32 21 44-1 57-26 34-48-12-12-16-18-13-31Z"/>
  <path fill="#7436a8" d="M35 48C39 79 5 96 25 123c11 17 43 19 42 34 28-35-24-40-33-56-9-17 6-31 1-53Z"/>
  <path fill="#a287d9" d="M24 76C1 117 22 133 52 143l15 14c8-26-32-27-44-47-6-10-3-21 1-34Z"/>
  <ellipse cx="60" cy="122" rx="53" ry="4" fill="none" stroke="#ffd52c" stroke-width="3" transform="rotate(5 60 122)"/>
</svg>
